<svg width="131" height="32" viewBox="0 0 131 32" fill="none" xmlns="http://www.w3.org/2000/svg">
<path d="M3.30334 26.9434V12.8281H0V26.9434V30.2305H3.30334H17.2571V26.9434H3.30334Z" fill="#C4232A"/>
<path d="M25.3389 5.22086V19.338H28.6403V5.22086V1.93375H25.3389H11.3831V5.22086H25.3389Z" fill="#C4232A"/>
<path d="M5.82642 7.8125V24.6367H22.8703V7.8125H5.82642ZM20.0112 21.8164H8.68747V10.6367H20.0132L20.0112 21.8164Z" fill="#1D3354"/>
<path d="M43.6483 24.6406L43.4114 23.0508H43.3225C42.4281 24.168 40.9116 24.9629 39.0359 24.9629C36.1195 24.9629 34.4827 22.873 34.4827 20.6953C34.4827 17.0742 37.7268 15.248 43.0836 15.2793V15.0391C43.0836 14.0977 42.6887 12.5371 40.1376 12.5371C38.7656 12.54 37.4193 12.9055 36.238 13.5957L35.5252 11.252C36.5954 10.6035 38.4712 9.98438 40.7616 9.98438C45.4056 9.98438 46.7443 12.9004 46.7443 16.0195V21.2012C46.7233 22.3529 46.7893 23.5045 46.9418 24.6465L43.6483 24.6406ZM43.1724 17.6328C40.5839 17.5781 38.1078 18.1348 38.1078 20.3125C38.1078 21.7246 39.0299 22.373 40.1909 22.373C40.8168 22.3851 41.4305 22.2007 41.9438 21.8463C42.4571 21.4919 42.8437 20.9857 43.048 20.4004C43.1287 20.143 43.1687 19.8749 43.1665 19.6055L43.1724 17.6328Z" fill="#1D3354"/>
<path d="M50.6124 14.5723C50.6124 12.9238 50.5827 11.5391 50.4939 10.3027H53.7064L53.8841 12.4512H53.973C54.5989 11.332 56.1765 9.97656 58.5874 9.97656C61.1167 9.97656 63.7349 11.5957 63.7349 16.1309V24.6387H60.0761V16.5449C60.0761 14.4844 59.3021 12.9238 57.3118 12.9238C55.8547 12.9238 54.8417 13.9531 54.4567 15.043C54.3427 15.423 54.2921 15.8188 54.3067 16.2148V24.6348H50.6124V14.5723Z" fill="#1D3354"/>
<path d="M80.998 3.73828V20.6074C80.998 22.0781 81.0572 23.668 81.1165 24.6406H77.8427L77.6947 22.373H77.6354C76.7726 23.9629 75.0153 24.9629 72.8966 24.9629C69.4452 24.9629 66.7066 22.0488 66.7066 17.6328C66.677 12.834 69.7137 9.97852 73.1948 9.97852C75.189 9.97852 76.6166 10.8027 77.2721 11.8633H77.3314V3.73828H80.998ZM77.3373 16.2793C77.3372 15.9635 77.3074 15.6483 77.2484 15.3379C76.9207 13.9238 75.7597 12.7754 74.0892 12.7754C71.7376 12.7754 70.4285 14.8359 70.4285 17.5156C70.4285 20.1348 71.7376 22.0488 74.0596 22.0488C74.8039 22.0477 75.5249 21.7922 76.1006 21.3256C76.6763 20.8589 77.0713 20.2099 77.2188 19.4883C77.3053 19.1415 77.3451 18.7849 77.3373 18.4277V16.2793Z" fill="#1D3354"/>
<path d="M93.08 24.6406L92.843 23.0508H92.7542C91.8597 24.168 90.3433 24.9629 88.4675 24.9629C85.5512 24.9629 83.9143 22.873 83.9143 20.6953C83.9143 17.0742 87.1584 15.248 92.5153 15.2793V15.0391C92.5153 14.0977 92.1204 12.5371 89.5693 12.5371C88.1973 12.54 86.851 12.9055 85.6696 13.5957L84.9568 11.252C86.027 10.6035 87.9028 9.98438 90.1932 9.98438C94.8373 9.98438 96.176 12.9004 96.176 16.0195V21.2012C96.1583 22.3531 96.2276 23.5048 96.3833 24.6465L93.08 24.6406ZM92.6041 17.6328C90.0155 17.5742 87.5454 18.1348 87.5454 20.3125C87.5454 21.7246 88.4675 22.373 89.6285 22.373C90.2544 22.3851 90.868 22.2007 91.3814 21.8463C91.8947 21.4919 92.2813 20.9857 92.4856 20.4004C92.5663 20.143 92.6063 19.8749 92.6041 19.6055V17.6328Z" fill="#1D3354"/>
<path d="M100.044 3.73828H103.734V24.6367H100.044V3.73828Z" fill="#1D3354"/>
<path d="M111.591 6.29883C111.591 7.38867 110.787 8.25195 109.508 8.25195C108.288 8.25195 107.484 7.39844 107.484 6.29883C107.484 5.19922 108.317 4.32812 109.537 4.32812C110.787 4.32812 111.559 5.18164 111.591 6.29883ZM107.693 24.6406V10.3027H111.382V24.6406H107.693Z" fill="#1D3354"/>
<path d="M115.311 14.5723C115.311 12.9238 115.281 11.5391 115.192 10.3027H118.407L118.585 12.4512H118.668C119.293 11.332 120.871 9.97656 123.28 9.97656C125.811 9.97656 128.429 11.5957 128.429 16.1309V24.6387H124.775V16.5449C124.775 14.4844 124.001 12.9238 122.01 12.9238C120.553 12.9238 119.54 13.9531 119.153 15.043C119.041 15.4233 118.991 15.8189 119.005 16.2148V24.6348H115.311V14.5723Z" fill="#1D3354"/>
</svg>
